<svg width="60" height="60" viewBox="0 0 60 60" fill="none" xmlns="http://www.w3.org/2000/svg">
<path fill-rule="evenodd" clip-rule="evenodd" d="M54.9509 47.0312C54.9778 47.1585 54.9937 47.2873 54.9985 47.4173L55 47.5V50C55 52.7615 49.9632 55 43.75 55C37.5989 55 32.6009 52.806 32.5015 50.0827L32.5 50V47.5L32.5015 47.4173C32.5062 47.2876 32.5221 47.1591 32.5486 47.032C33.2377 47.5498 34.0765 48.0274 35.0484 48.4363C37.317 49.3907 40.3761 50 43.75 50C47.2577 50 50.4246 49.3404 52.7203 48.3201C53.5784 47.9387 54.3253 47.5019 54.9509 47.0312ZM27.5 4.02502L50 16.525L50.0001 25.7503C48.1572 25.2771 46.0252 25 43.75 25C40.3236 25 37.2222 25.6299 34.9343 26.6468C31.8015 28.0392 30.2066 30.1685 30.005 32.3235L29.9993 32.3888L30.0136 52.6285L27.5 54.025L5 41.525V16.525L27.5 4.02502ZM54.9509 39.5312C54.9778 39.6585 54.9937 39.7873 54.9985 39.9173L55 40V42.5C55 45.2615 49.9632 47.5 43.75 47.5C37.5989 47.5 32.6009 45.306 32.5015 42.5827L32.5 42.5V40L32.5015 39.9173C32.5062 39.7876 32.5221 39.6591 32.5486 39.532C33.2377 40.0498 34.0765 40.5274 35.0484 40.9363C37.317 41.8907 40.3761 42.5 43.75 42.5C47.2577 42.5 50.4246 41.8404 52.7203 40.8201C53.5784 40.4387 54.3253 40.0019 54.9509 39.5312ZM19.9999 27.358L20 44.3031L25 47.0809V30.1357L19.9999 27.358ZM10 21.8026V38.7472L15 41.5251V24.5803L10 21.8026ZM43.75 27.5C49.9011 27.5 54.8991 29.6941 54.9985 32.4173L55 32.5V35C55 37.7615 49.9632 40 43.75 40C37.5989 40 32.6009 37.806 32.5015 35.0827L32.5 35V32.5L32.5166 32.2257C32.8371 29.5919 37.7439 27.5 43.75 27.5ZM37.3427 15.0487L22.6264 23.2619L27.5 25.9695L42.25 17.775L37.3427 15.0487ZM27.5 9.58058L12.75 17.775L17.6322 20.4874L32.3484 12.2742L27.5 9.58058Z" fill="black"/>
</svg>
